<svg version="1.1" xmlns="http://www.w3.org/2000/svg" viewBox="0 0 32 32" width="32" height="32">
  <path fill="#1ECCB0" d="M0,16c0,8.8,7.2,16,16,16c8.8,0,16-7.2,16-16c0-8.8-7.2-16-16-16C7.2,0,0,7.2,0,16z"/>
  <path fill="#FFFFFF" d="M13.8,25.1c-0.6-1-1.4-1.9-2.4-2.5s-2-1.1-3.2-1.4H8.2c-0.1,0-0.2,0-0.3,0.1s-0.1,0.2-0.1,0.3c0,0.1,0,0.2,0.1,0.2c1.3,1.9,3.3,3.3,5.5,3.9h0.1c0.1,0,0.1,0,0.2,0s0.1,0,0.1-0.1s0.1-0.1,0.1-0.1s0-0.1,0-0.2"/>
  <path fill="#FFFFFF" d="M25.6,13.3c-0.5-1.8-1.5-3.4-2.9-4.6c-1.4-1.2-3-2.1-4.8-2.4h-0.1c-0.1,0-0.2,0-0.3,0.1s-0.1,0.2-0.1,0.3v0.1c0.9,5.5,0.3,11.1-1.7,16.3c0,0.1-0.1,0.1-0.1,0.2s-0.1,0.1-0.2,0.1c-0.1,0-0.1,0-0.2,0s-0.1,0-0.1-0.1s-0.1-0.1-0.1-0.1s0-0.1,0-0.2c0,0-0.1-0.7-0.1-1c-0.6-4.8-2-9.4-4.3-13.7c0-0.1-0.1-0.1-0.1-0.1s-0.1-0.1-0.1-0.1s-0.1,0-0.2,0C10.1,8,10.1,8,10,8l0,0c-1.4,1.1-2.5,2.5-3.2,4.2c0,0.1,0,0.2,0,0.3s0.1,0.2,0.2,0.2c2.2,1.4,4,3.2,5.3,5.5s2,4.8,2.1,7.3c0,0.1,0,0.2,0.1,0.3s0.2,0.1,0.2,0.1c0.2,0,0.5,0.1,0.7,0.1c0.1,0,0.2,0,0.3-0.1s0.1-0.1,0.1-0.2c0.5-2.6,1.6-5.1,3.3-7.2s3.8-3.7,6.3-4.8c0.1,0,0.1-0.1,0.2-0.1"/>
  <path fill="#FFFFFF" d="M24.7,20.9c0-0.1,0-0.2-0.1-0.3s-0.2-0.1-0.3-0.1h-0.1c-3.1,0.7-5.9,2.4-7.9,4.8c-0.1,0.1-0.1,0.2-0.1,0.3s0,0.2,0.1,0.3s0.2,0.1,0.3,0.1l0,0c1.6-0.1,3.2-0.6,4.6-1.4s2.6-2,3.4-3.4"/>
</svg>
