<?xml version="1.0" encoding="UTF-8" standalone="no"?>
<svg viewBox="0 0 469.336 469.336" version="1.1" xmlns="http://www.w3.org/2000/svg">
  <g transform="translate(-21.332031,-21.332031)">
    <path style="fill:#ff0033;" d="M 490.66797,256 C 490.66797,126.39844 385.60156,21.332031 256,21.332031 126.39844,21.332031 21.332031,126.39844 21.332031,256 21.332031,385.60156 126.39844,490.66797 256,490.66797 385.60156,490.66797 490.66797,385.60156 490.66797,256 Z" />
    <path style="fill:#ffffff;" d="M 256,133.33203 C 323.625,133.33203 378.66797,188.375 378.66797,256 378.66797,323.625 323.625,378.66797 256,378.66797 188.375,378.66797 133.33203,323.625 133.33203,256 133.33203,188.375 188.375,133.33203 256,133.33203 M 256,112 c -79.57422,0 -144,64.42578 -144,144 0,79.57422 64.42578,144 144,144 79.57422,0 144,-64.42578 144,-144 0,-79.57422 -64.42578,-144 -144,-144 z" />
    <path style="fill:#ffffff;" d="M 213.33203,320 320,256 213.33203,192 Z" />
  </g>
</svg>
